<?xml version="1.0" encoding="utf-8"?>
<!-- Generator: Adobe Illustrator 22.1.0, SVG Export Plug-In . SVG Version: 6.00 Build 0)  -->
<svg version="1.1" id="Capa_1" xmlns="http://www.w3.org/2000/svg" xmlns:xlink="http://www.w3.org/1999/xlink" x="0px" y="0px"
	 viewBox="0 0 185.5 66.5" style="enable-background:new 0 0 185.5 66.5;" xml:space="preserve">
<style type="text/css">
	.st0{fill:#FFFFFF;}
</style>
<g>
	<g>
		<g>
			<path class="st0" d="M19.3,39.5c-7.8,0-14.2-6.3-14.2-14.2c0-7.8,6.4-14.2,14.2-14.2c7.8,0,14.2,6.3,14.2,14.2
				C33.5,33.2,27.1,39.5,19.3,39.5z M19.3,13.2c-6.8,0-12.2,5.5-12.2,12.2c0,6.8,5.5,12.2,12.2,12.2c6.7,0,12.2-5.5,12.2-12.2
				C31.6,18.6,26.1,13.2,19.3,13.2z"/>
			<path class="st0" d="M138.6,16.1c-0.4,0-1.1,0.1-1.9,0.4c-0.6,0.3-0.9,1-1.1,1.8l-2.4,13.6h3l2.2-12.6c0.1-0.8,0.5-2.8,1-3.2
				C139.2,16.1,138.9,16.1,138.6,16.1z"/>
			<path class="st0" d="M53.1,16.2c-0.4,0-1.5,0.1-2,0.7c-0.3,0.3-0.4,0.7-0.6,1.3L48,32h9.4l0.5-2.8h-6.4l0.7-4.3h5l0.5-2.6h-5
				l0.6-3.5h6.1l0.5-2.7h-5.5C54.4,16.1,53.6,16.1,53.1,16.2z"/>
			<path class="st0" d="M110.3,15.8c-5.9,0-9,4.7-9,10.4c0,3.2,1.7,5.6,4.9,6.1c2.1,3.7,3.1,5.3,5,5.3c0.8,0,1.7-0.1,2.1-0.2v-2
				h-0.6c-1.3,0-2.4-1.7-3.3-3.3c4.6-0.9,7-5.2,7-10.2C116.4,18.3,114.3,15.8,110.3,15.8z M107.6,29.6c-2,0-3.2-1.3-3.2-3.7
				c0-3.7,2.1-7.5,5.6-7.5c2,0,3.2,1.3,3.2,3.7C113.3,25.8,111.2,29.6,107.6,29.6z"/>
			<path class="st0" d="M149.1,15.8c-6,0-9.2,4.3-9.2,9.6c0,4.4,2.4,6.9,6.9,6.9c1.9,0,4.2-0.5,5.3-1.1l0.2-0.1
				c-0.4-0.7-0.7-1.4-0.9-2.3c-1,0.4-2.5,0.8-3.8,0.8c-2.9,0-4.5-1.5-4.5-4.4c0-3.7,2.2-6.8,6.2-6.8c1.2,0,2.4,0.4,3.2,0.8
				c0.4-0.9,0.9-1.6,1.5-2.3l-0.3-0.1C152.3,16.1,150.6,15.8,149.1,15.8z"/>
			<path class="st0" d="M162.9,15.8c-5.9,0-9,4.8-9,10.4c0,3.6,2.1,6.1,6.1,6.1c5.9,0,9-4.8,9-10.4C169,18.3,167,15.8,162.9,15.8z
				 M160.3,29.6c-2,0-3.2-1.3-3.2-3.7c0-3.7,2.1-7.5,5.6-7.5c2,0,3.2,1.3,3.2,3.7C165.9,25.8,163.8,29.6,160.3,29.6z"/>
			<path class="st0" d="M176.5,18.4c1.2,0,2.8,0.5,3.7,1l0.9-2.6c-0.9-0.5-2.6-1-4.2-1c-2.6,0-4.7,1.1-5.4,3.2
				c-0.2,0.5-0.2,1-0.2,1.6c0,0.8,0.2,1.5,0.6,2.1c1.5,2.2,4.9,2.8,4.9,4.8c0,1.3-1.2,2.1-2.7,2.1c-1.1,0-2.5-0.3-3.7-0.9
				c-0.4,0.8-0.9,1.6-1.4,2.3l0.2,0.1c1.2,0.8,3.1,1.2,4.6,1.2c4.6,0,6.3-2.6,6.3-5.2c0-3.9-5.7-4.6-5.7-6.8
				C174.3,19,175.2,18.4,176.5,18.4z"/>
			<path class="st0" d="M82.2,16.1l-1.5,1.6l-1.3,0l-6.7,11.5c0,0,0.1,1.1,1.7,2.7l2.2-3.8h5.4l0.8,3.8h3.1L82.2,16.1L82.2,16.1z
				 M77.9,25.7l2.5-4.4l0.9,4.4H77.9z"/>
			<polygon class="st0" points="80.3,16.9 83.9,12.9 80.9,12.9 78.7,16.9 			"/>
			<path class="st0" d="M72.4,20.2c0-2.8-1.8-4.1-4.8-4.1h-4.9L59.9,32h3l1.1-6.5h0.8c0.7,0,1,0.1,1.3,0.9l1.5,3.8l0,0
				c0.3,0.8,0.7,1.4,1.4,1.7c0.8,0.2,1.6,0.2,2,0.2c0.4,0,0.7-0.1,0.9-0.1c-0.4-0.2-0.8-1.1-1.1-1.9c-0.2-0.5-1-2.5-1-2.5l-0.5-1.2
				c-0.2-0.6-0.6-1.4-1.5-1.6C70.6,24.3,72.4,22.6,72.4,20.2z M66,22.9h-1.5l0.7-4h1.7c1.3,0,2.3,0.4,2.3,1.7
				C69.3,22.1,67.8,22.9,66,22.9z"/>
			<path class="st0" d="M133.4,16.1c-0.2,0-0.5,0-0.9,0c-0.4,0-1.1,0.1-1.9,0.4c-0.7,0.3-0.9,1-1.1,1.8v0l-1.3,7.6
				c-0.4,2.1-1.6,3.6-4,3.6c-2.2,0-3.2-1-3.2-2.5c0-0.4,0.1-1.1,0.2-1.5l1.7-9.4h-3l-1.7,9.6c-0.1,0.5-0.2,1.2-0.2,1.6
				c0,3.6,2.9,5,6,5c4.1,0,6.6-2,7.2-5.6l1.4-8.3C132.7,17.5,133,16.4,133.4,16.1z"/>
			<path class="st0" d="M48,16.1c-0.2,0-0.5,0-0.9,0c-0.4,0-1.1,0.1-1.8,0.4c-0.6,0.3-0.9,0.9-1.1,1.7l-1.8,9.9
				c-0.5,2.7-1.5,3.5-3.2,4.3l0.9,2.2c2.6-0.9,4.5-2.4,5.2-6.3l1.6-9.1C47.2,18.5,47.5,16.5,48,16.1z"/>
			<g>
				<path class="st0" d="M23,20.5c0.9,0,2,0.3,2.6,0.7l0.6-1.9c-0.6-0.4-1.9-0.7-3-0.7c-1.9,0-3.4,0.8-3.9,2.3
					c-0.1,0.4-0.2,0.7-0.2,1.2c0,0.6,0.2,1.1,0.5,1.5c1,1.5,3.5,2,3.5,3.4c0,1-0.9,1.5-1.9,1.5c-0.8,0-1.8-0.2-2.6-0.7
					c-0.3,0.6-0.6,1.1-1,1.6l0.1,0.1c0.8,0.5,2.2,0.9,3.3,0.9c3.3,0,4.5-1.9,4.5-3.7c0-2.8-4-3.3-4-4.8C21.4,20.9,22.1,20.5,23,20.5
					z"/>
				<path class="st0" d="M18.7,18.8c-0.2,0-0.4,0-0.6,0c-0.3,0-0.8,0.1-1.3,0.3c-0.5,0.2-0.6,0.7-0.8,1.2l-1.3,7.1
					c-0.3,1.9-1,2.5-2.3,3.1l0.7,1.6c1.9-0.6,3.2-1.7,3.7-4.5l1.2-6.5C18.1,20.6,18.3,19.1,18.7,18.8z"/>
			</g>
			<path class="st0" d="M99.7,20.2c0-2.8-1.8-4.1-4.8-4.1H90L87.3,32h3l1.1-6.5h0.8c0.7,0,1,0.1,1.3,0.9l1.5,3.8h0
				c0.3,0.8,0.7,1.4,1.4,1.7c0.8,0.2,1.6,0.2,2,0.2c0.4,0,0.7-0.1,0.9-0.1c-0.4-0.2-0.8-1.1-1.1-1.9c-0.2-0.6-1-2.5-1-2.5l-0.5-1.2
				c-0.2-0.6-0.6-1.4-1.5-1.6C98,24.3,99.7,22.6,99.7,20.2z M93.4,22.9h-1.5l0.7-4h1.7c1.3,0,2.3,0.4,2.3,1.7
				C96.6,22.1,95.2,22.9,93.4,22.9z"/>
		</g>
	</g>
	<g>
		<path class="st0" d="M129.5,39.6c-2.5,0-5.5,1.3-5.5,4.8c0,2,1.3,3,2.7,3.8c0.2,0.1,0.4,0.3,0.6,0.4c1.7,1,2.8,1.7,2.8,2.9
			c0,1.8-1.9,2.6-3.6,2.6c-1.3,0-2.6-0.4-3.8-1.2l-0.2-0.2l-0.7,2.1l0.1,0.1c0.8,0.5,2.5,1.2,4.4,1.2c3.7,0,6.1-1.9,6.1-5
			c0-2.1-1.7-3.2-3.3-4.2l-0.1-0.1c-0.2-0.1-0.4-0.2-0.6-0.4c-1.1-0.7-2.1-1.2-2.1-2.3c0-2.4,2.5-2.6,3.3-2.6c1.2,0,2.3,0.3,3.1,0.8
			l0.2,0.1l0.7-2l-0.1-0.1C132.3,39.9,131.1,39.6,129.5,39.6z"/>
		<path class="st0" d="M144.7,45.3l-0.1-0.1c-1.1-0.7-2.3-1.1-3.7-1.1c-3.6,0-6.2,3.3-6.2,7.9c0,2.6,1.2,4.1,3.2,4.1
			c1.1,0,2.3-0.6,3.2-1.5c0,0.2,0,0.3,0,0.4c0,0.8,0.4,1.1,1.2,1.1c0.8,0,1.7-0.3,2-0.3l0.1,0v-1.3l-0.2,0c-1.1,0-1.1-0.2-1.1-0.4
			c0-0.1,0.1-0.5,0.2-1.1L144.7,45.3z M138.3,54.2c-1.3,0-1.4-1.5-1.4-2.4c0-3.3,1.8-5.9,4-5.9c0.8,0,1.4,0.2,1.7,0.4l-0.9,5.3
			C140.7,52.9,139.4,54.2,138.3,54.2z"/>
		<path class="st0" d="M151.8,38.6l-2.2,0.5L147,53.6c-0.1,0.3-0.2,1.1-0.2,1.5c0,0.7,0.4,1,1.2,1c0.5,0,1.5-0.2,2.1-0.3l0.1,0v-1.3
			h-0.2c-0.9,0-1.1-0.1-1.1-0.3c0-0.2,0-0.4,0.1-0.9L151.8,38.6z"/>
		<path class="st0" d="M163.3,44.5h-2.1l-1.2,7.1c-0.8,1.2-2.2,2.6-3.5,2.6c-0.8,0-1.3-0.5-1.3-1.3c0-0.4,0.1-1,0.2-1.5l0.8-4.6
			c0.1-0.6,0.2-1.4,0.2-1.8c0-0.4-0.2-1-1.1-1c-0.6,0-1.5,0.1-2,0.3l-0.1,0l-0.3,1.3l0.2,0c0.9,0,1.1,0.2,1.1,0.4
			c0,0.1-0.1,0.7-0.1,1l-0.7,4.2c-0.1,0.8-0.1,1.4-0.1,1.8c0,1.9,1.2,3.1,3.1,3.1c1.1,0,2.3-0.6,3.4-1.6c0,0.2,0,0.4,0,0.5
			c0,0.7,0.4,1.1,1.3,1.1c0.6,0,1.6-0.2,2-0.3l0.1,0v-1.3h-0.2c-0.9,0-1-0.2-1-0.3c0-0.2,0-0.4,0.1-0.9L163.3,44.5z"/>
		<path class="st0" d="M173.9,54.1c0-0.1,0.1-0.6,0.2-1.2l2.5-14.4l-2.2,0.5l-0.9,5.4c-0.6-0.2-1.4-0.3-2.1-0.3
			c-3.5,0-6.2,3.4-6.2,7.8c0,2.7,1.2,4.2,3.3,4.2c1,0,2.3-0.6,3.3-1.6c0,0.2,0,0.3,0,0.4c0,0.8,0.3,1.1,1.2,1.1c0.7,0,1.6-0.2,2-0.3
			l0.1,0v-1.3l-0.2,0C173.9,54.4,173.9,54.3,173.9,54.1z M168.7,54.2c-1.2,0-1.5-1.3-1.5-2.4c0-3.3,1.8-5.8,4.1-5.8
			c0.2,0,1,0,1.7,0.4l-0.9,5.2C171.3,53.1,169.8,54.2,168.7,54.2z"/>
	</g>
</g>
</svg>
